HIERARCHY
ROOT hips
{
  OFFSET 0 10.6860622 2.3727825e-15
  CHANNELS 6 Xposition Yposition Zposition Yrotation Xrotation Zrotation
  JOINT leftUpperLeg
  {
    OFFSET 0.6642549969 -0.9402397400000004 0
    CHANNELS 3 Yrotation Xrotation Zrotation
    JOINT leftLowerLeg
    {
      OFFSET 0 -3.997221335632195 0
      CHANNELS 3 Yrotation Xrotation Zrotation
      JOINT leftFoot
      {
        OFFSET -0.13777839790000004 -4.6145792000000005 -0.22186036399999998
        CHANNELS 3 Yrotation Xrotation Zrotation
        JOINT leftToes
        {
          OFFSET -0.03777410834999995 -0.9130806927000008 0.85230013
          CHANNELS 3 Yrotation Xrotation Zrotation
          End Site
          {
            OFFSET -0.03777410834999995 -0.9130806927000008 0.85230013
          }
        }
      }
    }
  }
  JOINT rightUpperLeg
  {
    OFFSET -0.6642778626 -0.9402397400000004 0
    CHANNELS 3 Yrotation Xrotation Zrotation
    JOINT rightLowerLeg
    {
      OFFSET 0 -3.997221452859387 0
      CHANNELS 3 Yrotation Xrotation Zrotation
      JOINT rightFoot
      {
        OFFSET 0.1377926176 -4.6145792000000005 -0.22185782299999995
        CHANNELS 3 Yrotation Xrotation Zrotation
        JOINT rightToes
        {
          OFFSET 0.037780746850000047 -0.9130806927000008 0.85230167
          CHANNELS 3 Yrotation Xrotation Zrotation
          End Site
          {
            OFFSET 0.037780746850000047 -0.9130806927000008 0.85230167
          }
        }
      }
    }
  }
  JOINT spine
  {
    OFFSET 0 0.13988381660000015 0
    CHANNELS 3 Yrotation Xrotation Zrotation
    JOINT chest
    {
      OFFSET 0 0.6191039003973773 0
      CHANNELS 3 Yrotation Xrotation Zrotation
      JOINT upperChest
      {
        OFFSET 0 0.9855186130586943 0
        CHANNELS 3 Yrotation Xrotation Zrotation
        JOINT leftShoulder
        {
          OFFSET 0.1807663869 1.5087829790000005 0
          CHANNELS 3 Yrotation Xrotation Zrotation
          JOINT leftUpperArm
          {
            OFFSET 0.5985063006419806 0 0
            CHANNELS 3 Yrotation Xrotation Zrotation
            JOINT leftLowerArm
            {
              OFFSET 2.2993332369501065 0 0
              CHANNELS 3 Yrotation Xrotation Zrotation
              JOINT leftHand
              {
                OFFSET 2.395047042602395 0 0
                CHANNELS 3 Yrotation Xrotation Zrotation
                JOINT leftIndexProximal
                {
                  OFFSET 0.5766295810000004 0.04556643899499946 0.17265095988184
                  CHANNELS 3 Yrotation Xrotation Zrotation
                  JOINT leftIndexIntermediate
                  {
                    OFFSET 0.2957229000000008 -0.019352197700001517 -0.007932640616999987
                    CHANNELS 3 Yrotation Xrotation Zrotation
                    JOINT leftIndexDistal
                    {
                      OFFSET 0.19008243099999922 -0.012484908149998475 -0.002786250786000012
                      CHANNELS 3 Yrotation Xrotation Zrotation
                      End Site
                      {
                        OFFSET 0.19008243099999922 -0.012484908149998475 -0.002786250786000012
                      }
                    }
                  }
                }
                JOINT leftMiddleProximal
                {
                  OFFSET 0.5834975091000001 0.0524350405149987 0.02204081888183999
                  CHANNELS 3 Yrotation Xrotation Zrotation
                  JOINT leftMiddleIntermediate
                  {
                    OFFSET 0.33880573540000003 -0.019871473270000717 -0.00000971183179999946
                    CHANNELS 3 Yrotation Xrotation Zrotation
                    JOINT leftMiddleDistal
                    {
                      OFFSET 0.20676022730000088 -0.012221336379999448 0.0001471936708000235
                      CHANNELS 3 Yrotation Xrotation Zrotation
                      End Site
                      {
                        OFFSET 0.20676022730000088 -0.012221336379999448 0.0001471936708000235
                      }
                    }
                  }
                }
                JOINT leftLittleProximal
                {
                  OFFSET 0.5344154683999995 -0.012880921405001189 -0.24414037221816004
                  CHANNELS 3 Yrotation Xrotation Zrotation
                  JOINT leftLittleIntermediate
                  {
                    OFFSET 0.21758961730000093 -0.011650919939999227 0.011893592810000034
                    CHANNELS 3 Yrotation Xrotation Zrotation
                    JOINT leftLittleDistal
                    {
                      OFFSET 0.1475273964999999 -0.008152365682999818 0.006001092492999946
                      CHANNELS 3 Yrotation Xrotation Zrotation
                      End Site
                      {
                        OFFSET 0.1475273964999999 -0.008152365682999818 0.006001092492999946
                      }
                    }
                  }
                }
                JOINT leftRingProximal
                {
                  OFFSET 0.5799399463000003 0.026911854694997794 -0.12150566991816003
                  CHANNELS 3 Yrotation Xrotation Zrotation
                  JOINT leftRingIntermediate
                  {
                    OFFSET 0.26167887460000006 -0.013480186499999602 0.010996293000000053
                    CHANNELS 3 Yrotation Xrotation Zrotation
                    JOINT leftRingDistal
                    {
                      OFFSET 0.17667108799999987 -0.008990287899999228 0.0055541023999999065
                      CHANNELS 3 Yrotation Xrotation Zrotation
                      End Site
                      {
                        OFFSET 0.17667108799999987 -0.008990287899999228 0.0055541023999999065
                      }
                    }
                  }
                }
                JOINT leftThumbProximal
                {
                  OFFSET 0.11018806699999972 -0.09448718900500053 0.17047963138184
                  CHANNELS 3 Yrotation Xrotation Zrotation
                  JOINT leftThumbIntermediate
                  {
                    OFFSET 0.31062601459999983 -0.08126270900000132 0.15443142000000007
                    CHANNELS 3 Yrotation Xrotation Zrotation
                    JOINT leftThumbDistal
                    {
                      OFFSET 0.21627175790000086 -0.08833193599999878 0.018771167799999988
                      CHANNELS 3 Yrotation Xrotation Zrotation
                      End Site
                      {
                        OFFSET 0.21627175790000086 -0.08833193599999878 0.018771167799999988
                      }
                    }
                  }
                }
              }
            }
          }
        }
        JOINT neck
        {
          OFFSET 0 1.5463305265074576 0
          CHANNELS 3 Yrotation Xrotation Zrotation
          JOINT head
          {
            OFFSET 0 0.8456443600000344 0
            CHANNELS 3 Yrotation Xrotation Zrotation
            JOINT leftEye
            {
              OFFSET 0.30408573140000006 0.5104519199999995 0.1276382305
              CHANNELS 3 Yrotation Xrotation Zrotation
              End Site
              {
                OFFSET 0.30408573140000006 0.5104519199999995 0.1276382305
              }
            }
            JOINT rightEye
            {
              OFFSET -0.30409491089999996 0.5104519199999995 0.1276379445
              CHANNELS 3 Yrotation Xrotation Zrotation
              End Site
              {
                OFFSET -0.30409491089999996 0.5104519199999995 0.1276379445
              }
            }
            JOINT jaw
            {
              OFFSET -3.155239131000001e-7 -0.11984121820000082 0.60178107
              CHANNELS 3 Yrotation Xrotation Zrotation
              End Site
              {
                OFFSET -3.155239131000001e-7 -0.11984121820000082 0.60178107
              }
            }
          }
        }
        JOINT rightShoulder
        {
          OFFSET -0.1807303465 1.5087829790000005 0
          CHANNELS 3 Yrotation Xrotation Zrotation
          JOINT rightUpperArm
          {
            OFFSET -0.5985063796536958 0 0
            CHANNELS 3 Yrotation Xrotation Zrotation
            JOINT rightLowerArm
            {
              OFFSET -2.2993322059002854 0 0
              CHANNELS 3 Yrotation Xrotation Zrotation
              JOINT rightHand
              {
                OFFSET -2.395045314457259 0 0
                CHANNELS 3 Yrotation Xrotation Zrotation
                JOINT rightIndexProximal
                {
                  OFFSET -0.5764487688300002 0.0441371204405987 0.17361932004999997
                  CHANNELS 3 Yrotation Xrotation Zrotation
                  JOINT rightIndexIntermediate
                  {
                    OFFSET -0.29573011380000047 -0.01934826376999843 -0.007698921482999974
                    CHANNELS 3 Yrotation Xrotation Zrotation
                    JOINT rightIndexDistal
                    {
                      OFFSET -0.19008373999999884 -0.012503266380000655 -0.0026365778999999897
                      CHANNELS 3 Yrotation Xrotation Zrotation
                      End Site
                      {
                        OFFSET -0.19008373999999884 -0.012503266380000655 -0.0026365778999999897
                      }
                    }
                  }
                }
                JOINT rightMiddleProximal
                {
                  OFFSET -0.5834852037300005 0.05211639405060153 0.02307162440000001
                  CHANNELS 3 Yrotation Xrotation Zrotation
                  JOINT rightMiddleIntermediate
                  {
                    OFFSET -0.33880114510000003 -0.019952774050000954 0.0002455003561999819
                    CHANNELS 3 Yrotation Xrotation Zrotation
                    JOINT rightMiddleDistal
                    {
                      OFFSET -0.20675694929999955 -0.012273788999999091 0.00030209124000002766
                      CHANNELS 3 Yrotation Xrotation Zrotation
                      End Site
                      {
                        OFFSET -0.20675694929999955 -0.012273788999999091 0.00030209124000002766
                      }
                    }
                  }
                }
                JOINT rightLittleProximal
                {
                  OFFSET -0.5346811737299992 -0.011214256288399227 -0.24363941305000003
                  CHANNELS 3 Yrotation Xrotation Zrotation
                  JOINT rightLittleIntermediate
                  {
                    OFFSET -0.21757715980000092 -0.011771559690000988 0.01201554387
                    CHANNELS 3 Yrotation Xrotation Zrotation
                    JOINT rightLittleDistal
                    {
                      OFFSET -0.1475201849000004 -0.00822055339600003 0.006082065407000015
                      CHANNELS 3 Yrotation Xrotation Zrotation
                      End Site
                      {
                        OFFSET -0.1475201849000004 -0.00822055339600003 0.006082065407000015
                      }
                    }
                  }
                }
                JOINT rightRingProximal
                {
                  OFFSET -0.5800810755299999 0.027657985680600072 -0.12066365025000003
                  CHANNELS 3 Yrotation Xrotation Zrotation
                  JOINT rightRingIntermediate
                  {
                    OFFSET -0.26166445029999974 -0.013623118409999302 0.011164098990000045
                    CHANNELS 3 Yrotation Xrotation Zrotation
                    JOINT rightRingDistal
                    {
                      OFFSET -0.17666387530000027 -0.009072900100000503 0.005668185599999959
                      CHANNELS 3 Yrotation Xrotation Zrotation
                      End Site
                      {
                        OFFSET -0.17666387530000027 -0.009072900100000503 0.005668185599999959
                      }
                    }
                  }
                }
                JOINT rightThumbProximal
                {
                  OFFSET -0.10997596379000074 -0.09577489355940072 0.16989765924999997
                  CHANNELS 3 Yrotation Xrotation Zrotation
                  JOINT rightThumbIntermediate
                  {
                    OFFSET -0.31036620999999986 -0.08229339117999834 0.15440884469999996
                    CHANNELS 3 Yrotation Xrotation Zrotation
                    JOINT rightThumbDistal
                    {
                      OFFSET -0.21631306399999906 -0.08825326400000111 0.018656797720000014
                      CHANNELS 3 Yrotation Xrotation Zrotation
                      End Site
                      {
                        OFFSET -0.21631306399999906 -0.08825326400000111 0.018656797720000014
                      }
                    }
                  }
                }
              }
            }
          }
        }
      }
    }
  }
}
MOTION
Frames: 5
Frame Time: 0.03333333333333333
-0.12496102598966756 -10.38199117107144 0.13882456037171165 180 -84.68916584783237 180 4.489557724243766 -26.79999850899879 5.129413316598243 59.361407873291604 75.93300503843788 47.73326042870092 4.049763536487182 29.82701305048196 -3.3851053053435307 0 0 0 -0.04637267648561393 -25.224650064847744 -9.136094211730608 -44.53390710513843 70.78218463963711 -32.51484993878628 -0.3219281143471772 36.464273468099535 7.316119347702681 0 0 0 -0.5690591395099224 1.0749539437308475 -1.1170058002082164 -0.9803964008741174 -1.7212128668752533 1.8344612311720898 0 0 0 0.9127100467052778 1.0933147513594312 0.5437908116349641 -4.970062960020705 -13.61729982652346 -79.12528560021455 -53.61347661532984 5.216600586903004 -7.682222792998099 9.13803811918751 10.932670559997813 -45.459562584862454 0 0 0 0 0 0 0 0 0 0 0 0 0 0 0 0 0 0 0 0 0 0 0 0 0 0 0 0 0 0 0 0 0 0 0 0 0 0 0 0 0 0 0 0 0 -0.0018066806688833501 0.52698998206192 16.272770601943066 -0.00018455253792642586 -0.4751331478097993 10.999556588197311 0 0 0 0 0 0 0 0 0 11.850335203220263 -8.090503088918009 -21.882485854702075 7.107781856187847 -21.382964601130507 70.88917360020518 80.48237632099237 -2.1781013656001007 21.282370633430777 2.7510037897493222 -20.009153820311706 56.23865614706639 0 0 0 0 0 0 0 0 0 0 0 0 0 0 0 0 0 0 0 0 0 0 0 0 0 0 0 0 0 0 0 0 0 0 0 0 0 0 0 0 0 0 0 0 0
-0.12496102598966756 -10.395696354013415 0.13334237983801372 180 -84.3884957624527 180 4.523712449019846 -26.55617579084061 5.1560785358837995 59.361407873291604 75.93300503843788 47.73326042870092 4.0793333300227665 29.947255106101014 -3.2963136871505183 0 0 0 -0.1705787546464827 -24.969297778966823 -9.162507778288301 -44.53390710513843 70.78218463963711 -32.51484993878628 -0.3214374723708853 36.57941175758828 7.154755651588216 0 0 0 -0.5692170004775639 1.7530056802724239 -1.1237474017133517 -0.9806241134505068 -2.1720358429858724 1.842126221438847 0 0 0 0.7607225845843255 0.8925369696841766 0.4264102704909935 -4.970062960020705 -13.61729982652346 -79.12528560021455 -52.97524395070556 5.271954056287504 -7.57558283946695 8.936099777226739 10.938517508436952 -45.46910509424087 0 0 0 0 0 0 0 0 0 0 0 0 0 0 0 0 0 0 0 0 0 0 0 0 0 0 0 0 0 0 0 0 0 0 0 0 0 0 0 0 0 0 0 0 0 -0.0017847117430709646 0.5270029492976823 16.047673078681918 -0.00017473529933766585 -0.450124021611445 10.999558185334816 0 0 0 0 0 0 0 0 0 12.014738242191767 -7.676091422886292 -21.569192514459676 7.092612971642108 -21.453189442811528 70.63231020776921 80.33393471404067 -2.1214830013689903 21.131791595732707 3.097864903434445 -19.902171073801053 56.43278472626082 0 0 0 0 0 0 0 0 0 0 0 0 0 0 0 0 0 0 0 0 0 0 0 0 0 0 0 0 0 0 0 0 0 0 0 0 0 0 0 0 0 0 0 0 0
-0.12496102598966756 -10.409401268563116 0.1278601993043158 180 -84.08785216163544 180 4.557920223743506 -26.312369577619503 5.182848676443658 59.361407873291604 75.93300503843788 47.73326042870092 4.109156544714854 30.067463170870013 -3.207342987504887 0 0 0 -0.29465570583938716 -24.714008163810686 -9.189475439513258 -44.53390710513843 70.78218463963711 -32.51484993878628 -0.32135077981521987 36.69455164478998 6.993153846364017 0 0 0 -0.5694557238802598 2.430965238846004 -1.130493056331515 -0.9809128588058658 -2.622830905841645 1.8497946424019263 0 0 0 0.6091567417807793 0.691455243061544 0.30957103134089353 -4.970062960020705 -13.61729982652346 -79.12528560021455 -52.33693178470778 5.3261145657596956 -7.468334273803971 8.734160184031163 10.94432978860766 -45.47866757438229 0 0 0 0 0 0 0 0 0 0 0 0 0 0 0 0 0 0 0 0 0 0 0 0 0 0 0 0 0 0 0 0 0 0 0 0 0 0 0 0 0 0 0 0 0 -0.0017616989013965808 0.5270168770694571 15.82258088141585 -0.00016491815928931268 -0.4251159416961987 10.999555032436012 0 0 0 0 0 0 0 0 0 12.181260315924124 -7.26262214463679 -21.255030918317832 7.077764525447868 -21.52348850602215 70.37538104895097 80.18536132212684 -2.0652573513254833 20.981078200100093 3.444851742984633 -19.796300473904534 56.62744934404935 0 0 0 0 0 0 0 0 0 0 0 0 0 0 0 0 0 0 0 0 0 0 0 0 0 0 0 0 0 0 0 0 0 0 0 0 0 0 0 0 0 0 0 0 0
-0.12496102598966756 -10.42310618311282 0.12237828716288919 180 -83.78719197692423 180 4.5921814767739875 -26.068586769814562 5.209722990918905 59.361407873291604 75.93300503843788 47.73326042870092 4.139231513446349 30.187627773838482 -3.118191753802802 0 0 0 -0.4186075369965384 -24.458781407749303 -9.216995427868259 -44.53390710513843 70.78218463963711 -32.51484993878628 -0.32166847928644937 36.809680806382026 6.831312826967601 0 0 0 -0.5697734358304029 3.1087788278647444 -1.1372426907829214 -0.9812624684426978 -3.0735856569760585 1.8574694174038842 0 0 0 0.4580115429605269 0.4900719951880419 0.19327283985634258 -4.970062960020705 -13.61729982652346 -79.12528560021455 -51.69859189949272 5.379073274437136 -7.360497703563804 8.532217437615959 10.950116964202852 -45.48826734242494 0 0 0 0 0 0 0 0 0 0 0 0 0 0 0 0 0 0 0 0 0 0 0 0 0 0 0 0 0 0 0 0 0 0 0 0 0 0 0 0 0 0 0 0 0 -0.001738603096759792 0.5270289371323985 15.597491465549464 -0.00015510111251392734 -0.4001068488464268 10.999557000367483 0 0 0 0 0 0 0 0 0 12.349888091901304 -6.850120525108006 -20.93998739387704 7.063257859663132 -21.593834457762533 70.11831459738951 80.03662283896983 -2.0094213290196006 20.830216120350862 3.7919570932174667 -19.69155575856695 56.82265026041849 0 0 0 0 0 0 0 0 0 0 0 0 0 0 0 0 0 0 0 0 0 0 0 0 0 0 0 0 0 0 0 0 0 0 0 0 0 0 0 0 0 0 0 0 0
-0.12496102598966756 -10.436811366054792 0.11689610662919127 180 -83.48657000037804 180 4.62650137477125 -25.824832306366524 5.236704881191062 59.361407873291604 75.93300503843788 47.73326042870092 4.169557758995454 30.307749285541647 -3.028861067311385 0 0 0 -0.5424360109837848 -24.203613950583684 -9.24506268338554 -44.53390710513843 70.78218463963711 -32.51484993878628 -0.3223938062086112 36.92482101957372 6.669231912992341 0 0 0 -0.570171178445038 3.7864036074224385 -1.1439997694761725 -0.9816720096683296 -3.5242845541976453 1.865148337720641 0 0 0 0.3072869888240526 0.2883925618711928 0.07751348794558449 -4.970062960020705 -13.61729982652346 -79.12528560021455 -51.06024197385695 5.430818766230392 -7.252091702200268 8.330277331256568 10.955862510963016 -45.49786248147284 0 0 0 0 0 0 0 0 0 0 0 0 0 0 0 0 0 0 0 0 0 0 0 0 0 0 0 0 0 0 0 0 0 0 0 0 0 0 0 0 0 0 0 0 0 -0.0017163897637278228 0.5270424913624577 15.37240700999773 -0.00014528416240403575 -0.3750987660627241 10.999557757204684 0 0 0 0 0 0 0 0 0 12.520621674443028 -6.4386253476966 -20.624041721524335 7.049084720967049 -21.66424217107864 69.8611677984244 79.88777394048392 -1.9539838107424008 20.679231370914007 4.139170346138318 -19.587936176346208 57.01836056961787 0 0 0 0 0 0 0 0 0 0 0 0 0 0 0 0 0 0 0 0 0 0 0 0 0 0 0 0 0 0 0 0 0 0 0 0 0 0 0 0 0 0 0 0 0
